# This file uses centimeters as units for non-parametric coordinates.

mtllib portal_wood_frame.mtl
g default
v -1.647052 -3.219208 -0.089865
v 1.658163 -3.219208 -0.089865
v -1.647052 3.219208 -0.089865
v 1.658163 3.219208 -0.089865
v 1.565751 3.160064 -0.265773
v -1.565751 3.160064 -0.265773
v -1.565751 -3.160064 -0.265773
v 1.565751 -3.160064 -0.265773
v 1.565751 3.160064 0.088487
v -1.565751 3.160064 0.088487
v -1.565751 -3.160064 0.088487
v 1.565751 -3.160064 0.088487
v 1.919304 3.513617 0.162287
v -1.919304 3.513617 0.162287
v -1.919304 -3.513618 0.162287
v 1.919304 -3.513618 0.162287
v 1.919304 3.513617 -0.265773
v -1.919304 3.513617 -0.265773
v -1.919304 -3.513618 -0.265773
v 1.919304 -3.513618 -0.265773
v -1.687034 3.281347 0.162287
v -1.687033 -3.281347 0.162287
v 1.687034 -3.281346 0.162287
v 1.687033 3.281347 0.162287
v -1.687034 3.281347 0.265773
v -1.687033 -3.281347 0.265773
v -1.919304 3.513617 0.265773
v -1.919304 -3.513618 0.265773
v 1.687034 -3.281346 0.265773
v 1.919304 -3.513618 0.265773
v 1.687033 3.281347 0.265773
v 1.919304 3.513617 0.265773
vt 0.163047 0.352773
vt 0.363608 0.352773
vt 0.163047 0.655692
vt 0.363608 0.655692
vt 0.349003 0.921437
vt 0.644859 0.921437
vt 0.644859 0.954906
vt 0.349003 0.954906
vt 0.377370 0.066974
vt 0.974479 0.066974
vt 0.974479 0.100444
vt 0.377370 0.100444
vt 0.318253 0.969455
vt 0.022397 0.969455
vt 0.022397 0.935985
vt 0.318253 0.935985
vt 0.974479 0.062871
vt 0.377370 0.062871
vt 0.377370 0.029402
vt 0.974479 0.029402
vt 0.656317 0.968319
vt 0.337544 0.968319
vt 0.985938 0.113857
vt 0.365912 0.113857
vt 0.010938 0.922572
vt 0.329711 0.922572
vt 0.365912 0.015989
vt 0.985938 0.015989
vt 0.758953 0.893952
vt 0.396291 0.893952
vt 0.396291 0.853510
vt 0.758953 0.853510
vt 0.062275 0.135639
vt 0.055436 0.836253
vt 0.012844 0.835919
vt 0.019673 0.135275
vt 0.013979 0.862860
vt 0.376641 0.862860
vt 0.376641 0.903302
vt 0.013979 0.903302
vt 0.470885 0.832801
vt 0.477958 0.132392
vt 0.520555 0.132853
vt 0.513479 0.833255
vt 0.903258 0.828190
vt 0.540596 0.828190
vt 0.573999 0.794788
vt 0.869855 0.794788
vt 0.903258 0.164276
vt 0.869855 0.197678
vt 0.540596 0.164276
vt 0.573999 0.197678
vt 0.095707 0.158880
vt 0.089108 0.813214
vt 0.065731 0.836333
vt 0.072575 0.135730
vt 0.444263 0.155381
vt 0.467659 0.132279
vt 0.437467 0.809541
vt 0.460588 0.832692
vt 0.104536 0.163947
vt 0.097454 0.803477
vt 0.435824 0.163956
vt 0.104406 0.163894
vt 0.013979 0.853083
vt 0.376641 0.853083
vt 0.428303 0.803668
vt 0.435505 0.164112
vt 0.097588 0.803546
vt 0.428820 0.803444
vt 0.758953 0.903730
vt 0.396291 0.903730
vn 0.000000 0.000000 1.000000
vn 0.000000 0.000000 1.000000
vn 0.000000 0.000000 1.000000
vn 0.000000 0.000000 1.000000
vn 0.000000 -1.000000 0.000000
vn 0.000000 -1.000000 0.000000
vn 0.000000 -1.000000 0.000000
vn 0.000000 -1.000000 0.000000
vn 1.000000 0.000000 0.000000
vn 1.000000 0.000000 0.000000
vn 1.000000 0.000000 0.000000
vn 1.000000 0.000000 0.000000
vn 0.000000 1.000000 0.000000
vn 0.000000 1.000000 0.000000
vn 0.000000 1.000000 0.000000
vn 0.000000 1.000000 0.000000
vn -1.000000 0.000000 0.000000
vn -1.000000 0.000000 0.000000
vn -1.000000 0.000000 0.000000
vn -1.000000 0.000000 0.000000
vn 0.000000 -0.519821 0.854275
vn 0.000000 -0.519821 0.854275
vn 0.000000 -0.519821 0.854275
vn 0.000000 -0.519821 0.854275
vn 0.519822 0.000000 0.854275
vn 0.519822 0.000000 0.854275
vn 0.519822 0.000000 0.854275
vn 0.519822 0.000000 0.854275
vn 0.000000 0.519822 0.854275
vn 0.000000 0.519822 0.854275
vn 0.000000 0.519822 0.854275
vn 0.000000 0.519822 0.854275
vn -0.519822 0.000000 0.854275
vn -0.519822 0.000000 0.854275
vn -0.519822 0.000000 0.854275
vn -0.519822 0.000000 0.854275
vn 0.000000 1.000000 0.000000
vn 0.000000 1.000000 0.000000
vn 0.000000 1.000000 0.000000
vn 0.000000 1.000000 0.000000
vn -1.000000 0.000000 0.000000
vn -1.000000 0.000000 0.000000
vn -1.000000 0.000000 0.000000
vn -1.000000 0.000000 0.000000
vn 0.000000 -1.000000 0.000000
vn 0.000000 -1.000000 0.000000
vn 0.000000 -1.000000 0.000000
vn 0.000000 -1.000000 0.000000
vn 1.000000 0.000000 0.000000
vn 1.000000 0.000000 0.000000
vn 1.000000 0.000000 0.000000
vn 1.000000 0.000000 0.000000
vn 0.000000 0.000000 -1.000000
vn 0.000000 0.000000 -1.000000
vn 0.000000 0.000000 -1.000000
vn 0.000000 0.000000 -1.000000
vn 0.000000 0.000000 -1.000000
vn 0.000000 0.000000 -1.000000
vn 0.000000 0.000000 -1.000000
vn 0.000000 0.000000 -1.000000
vn 0.000000 0.000000 -1.000000
vn 0.000000 0.000000 -1.000000
vn 0.000000 0.000000 -1.000000
vn 0.000000 0.000000 -1.000000
vn 0.000000 0.000000 -1.000000
vn 0.000000 0.000000 -1.000000
vn 0.000000 0.000000 -1.000000
vn 0.000000 0.000000 -1.000000
vn 0.000000 0.000000 1.000000
vn 0.000000 0.000000 1.000000
vn 0.000000 0.000000 1.000000
vn 0.000000 0.000000 1.000000
vn 0.000000 0.000000 1.000000
vn 0.000000 0.000000 1.000000
vn 0.000000 0.000000 1.000000
vn 0.000000 0.000000 1.000000
vn 0.000000 0.000000 1.000000
vn 0.000000 0.000000 1.000000
vn 0.000000 0.000000 1.000000
vn 0.000000 0.000000 1.000000
vn 0.000000 0.000000 1.000000
vn 0.000000 0.000000 1.000000
vn 0.000000 0.000000 1.000000
vn 0.000000 0.000000 1.000000
vn 1.000000 0.000000 0.000000
vn 1.000000 0.000000 0.000000
vn 1.000000 0.000000 0.000000
vn 1.000000 0.000000 0.000000
vn -1.000000 0.000000 0.000000
vn -1.000000 0.000000 0.000000
vn -1.000000 0.000000 0.000000
vn -1.000000 0.000000 0.000000
vn 0.000000 1.000000 0.000000
vn 0.000000 1.000000 0.000000
vn 0.000000 1.000000 0.000000
vn 0.000000 1.000000 0.000000
vn 0.000000 -1.000000 0.000000
vn 0.000000 -1.000000 0.000000
vn 0.000000 -1.000000 0.000000
vn 0.000000 -1.000000 0.000000
vn -1.000000 0.000000 0.000000
vn -1.000000 0.000000 0.000000
vn -1.000000 0.000000 0.000000
vn -1.000000 0.000000 0.000000
vn 1.000000 0.000000 0.000000
vn 1.000000 0.000000 0.000000
vn 1.000000 0.000000 0.000000
vn 1.000000 0.000000 0.000000
vn 0.000000 -1.000000 0.000000
vn 0.000000 -1.000000 0.000000
vn 0.000000 -1.000000 0.000000
vn 0.000000 -1.000000 0.000000
vn 0.000000 1.000000 0.000000
vn 0.000000 1.000000 0.000000
vn 0.000000 1.000000 0.000000
vn 0.000000 1.000000 0.000000
s off
g pPlane2
usemtl lambert4SG
f 1/1/1 2/2/2 4/4/3 3/3/4
f 6/5/5 5/6/6 9/7/7 10/8/8
f 7/9/9 6/10/10 10/11/11 11/12/12
f 8/13/13 7/14/14 11/15/15 12/16/16
f 5/17/17 8/18/18 12/19/19 9/20/20
f 10/8/21 9/7/22 24/21/23 21/22/24
f 11/12/25 10/11/26 21/23/27 22/24/28
f 12/16/29 11/15/30 22/25/31 23/26/32
f 9/20/33 12/19/34 23/27/35 24/28/36
f 14/29/37 13/30/38 17/31/39 18/32/40
f 15/33/41 14/34/42 18/35/43 19/36/44
f 16/37/45 15/38/46 19/39/47 20/40/48
f 13/41/49 16/42/50 20/43/51 17/44/52
f 18/45/53 17/46/54 5/47/55 6/48/56
f 19/49/57 18/45/58 6/48/59 7/50/60
f 20/51/61 19/49/62 7/50/63 8/52/64
f 17/46/65 20/51/66 8/52/67 5/47/68
f 26/53/69 25/54/70 27/55/71 28/56/72
f 29/57/73 26/53/74 28/56/75 30/58/76
f 31/59/77 29/57/78 30/58/79 32/60/80
f 25/54/81 31/59/82 32/60/83 27/55/84
f 22/61/85 21/62/86 25/54/87 26/53/88
f 14/34/89 15/33/90 28/56/91 27/55/92
f 23/63/93 22/64/94 26/53/95 29/57/96
f 15/38/97 16/37/98 30/65/99 28/66/100
f 24/67/101 23/68/102 29/57/103 31/59/104
f 16/42/105 13/41/106 32/60/107 30/58/108
f 21/69/109 24/70/110 31/59/111 25/54/112
f 13/30/113 14/29/114 27/71/115 32/72/116
