# This file uses centimeters as units for non-parametric coordinates.

g default
v 4.089020 1.526875 0.279996
v 3.836273 1.274132 0.279996
v 6.268318 -0.652435 0.279996
v 6.015579 -0.905170 0.279996
v 6.268318 -0.652435 -0.044938
v 6.015579 -0.905170 -0.044938
v 4.089020 1.526875 -0.044938
v 3.836273 1.274132 -0.044938
v 3.831070 -2.580399 0.279995
v 4.083817 -2.833141 0.279995
v 5.760941 -0.650532 0.279995
v 6.013680 -0.903275 0.279995
v 5.760941 -0.650532 -0.044939
v 6.013680 -0.903275 -0.044939
v 3.831070 -2.580399 -0.044939
v 4.083817 -2.833141 -0.044939
v 3.112076 -2.833141 0.279996
v 3.364822 -2.580399 0.279996
v 0.932777 -0.653831 0.279996
v 1.185516 -0.401096 0.279996
v 0.932777 -0.653831 -0.044938
v 1.185516 -0.401096 -0.044938
v 3.112076 -2.833141 -0.044938
v 3.364822 -2.580399 -0.044938
v 3.370026 1.274132 0.279995
v 3.117279 1.526875 0.279995
v 1.440155 -0.655735 0.279995
v 1.187416 -0.402992 0.279995
v 1.440155 -0.655735 -0.044939
v 1.187416 -0.402992 -0.044939
v 3.370026 1.274132 -0.044939
v 3.117279 1.526875 -0.044939
v -3.067139 1.526875 0.279996
v -3.319878 1.274132 0.279996
v -0.887833 -0.652435 0.279996
v -1.140572 -0.905170 0.279996
v -0.887833 -0.652435 -0.044938
v -1.140572 -0.905170 -0.044938
v -3.067139 1.526875 -0.044938
v -3.319878 1.274132 -0.044938
v -3.325081 -2.580399 0.279995
v -3.072342 -2.833141 0.279995
v -1.395218 -0.650532 0.279995
v -1.142471 -0.903275 0.279995
v -1.395218 -0.650532 -0.044939
v -1.142471 -0.903275 -0.044939
v -3.325081 -2.580399 -0.044939
v -3.072342 -2.833141 -0.044939
v -4.044075 -2.833141 0.279996
v -3.791336 -2.580399 0.279996
v -6.223381 -0.653831 0.279996
v -5.970642 -0.401096 0.279996
v -6.223381 -0.653831 -0.044938
v -5.970642 -0.401096 -0.044938
v -4.044075 -2.833141 -0.044938
v -3.791336 -2.580399 -0.044938
v -3.786133 1.274132 0.279995
v -4.038872 1.526875 0.279995
v -5.716003 -0.655735 0.279995
v -5.968742 -0.402992 0.279995
v -5.716003 -0.655735 -0.044939
v -5.968742 -0.402992 -0.044939
v -3.786133 1.274132 -0.044939
v -4.038872 1.526875 -0.044939
vt 0.279208 0.930719
vt 0.188399 0.930719
vt 0.188399 0.147692
vt 0.279208 0.147692
vt 0.188399 0.065138
vt 0.279208 0.065138
vt 0.820206 0.154286
vt 0.820206 0.063476
vt 0.902760 0.063476
vt 0.902760 0.154286
vt 0.105844 0.930719
vt 0.105844 0.147692
vt 0.361762 0.930719
vt 0.361762 0.147692
vt 0.575124 0.756968
vt 0.484314 0.756968
vt 0.484314 0.063563
vt 0.575124 0.063563
vt 0.705473 0.154098
vt 0.705474 0.063288
vt 0.788028 0.063288
vt 0.788028 0.154098
vt 0.401760 0.756968
vt 0.401760 0.063563
vt 0.657679 0.756968
vt 0.657679 0.063563
vt 0.279208 0.930719
vt 0.188399 0.930719
vt 0.188399 0.147692
vt 0.279208 0.147692
vt 0.188399 0.065138
vt 0.279208 0.065138
vt 0.820206 0.154286
vt 0.820206 0.063476
vt 0.902760 0.063476
vt 0.902760 0.154286
vt 0.105844 0.930719
vt 0.105844 0.147692
vt 0.361762 0.930719
vt 0.361762 0.147692
vt 0.575124 0.756968
vt 0.484314 0.756968
vt 0.484314 0.063563
vt 0.575124 0.063563
vt 0.705473 0.154098
vt 0.705474 0.063288
vt 0.788028 0.063288
vt 0.788028 0.154098
vt 0.401760 0.756968
vt 0.401760 0.063563
vt 0.657679 0.756968
vt 0.657679 0.063563
vt 0.279208 0.930719
vt 0.188399 0.930719
vt 0.188399 0.147692
vt 0.279208 0.147692
vt 0.188399 0.065138
vt 0.279208 0.065138
vt 0.820206 0.154286
vt 0.820206 0.063476
vt 0.902760 0.063476
vt 0.902760 0.154286
vt 0.105844 0.930719
vt 0.105844 0.147692
vt 0.361762 0.930719
vt 0.361762 0.147692
vt 0.575124 0.756968
vt 0.484314 0.756968
vt 0.484314 0.063563
vt 0.575124 0.063563
vt 0.705473 0.154098
vt 0.705474 0.063288
vt 0.788028 0.063288
vt 0.788028 0.154098
vt 0.401760 0.756968
vt 0.401760 0.063563
vt 0.657679 0.756968
vt 0.657679 0.063563
vt 0.279208 0.930719
vt 0.188399 0.930719
vt 0.188399 0.147692
vt 0.279208 0.147692
vt 0.188399 0.065138
vt 0.279208 0.065138
vt 0.820206 0.154286
vt 0.820206 0.063476
vt 0.902760 0.063476
vt 0.902760 0.154286
vt 0.105844 0.930719
vt 0.105844 0.147692
vt 0.361762 0.930719
vt 0.361762 0.147692
vt 0.575124 0.756968
vt 0.484314 0.756968
vt 0.484314 0.063563
vt 0.575124 0.063563
vt 0.705473 0.154098
vt 0.705474 0.063288
vt 0.788028 0.063288
vt 0.788028 0.154098
vt 0.401760 0.756968
vt 0.401760 0.063563
vt 0.657679 0.756968
vt 0.657679 0.063563
vn -0.000000 0.000000 1.000000
vn -0.000000 0.000000 1.000000
vn -0.000000 0.000000 1.000000
vn -0.000000 0.000000 1.000000
vn 0.707102 -0.707112 0.000000
vn 0.707102 -0.707112 0.000000
vn 0.707102 -0.707112 0.000000
vn 0.707102 -0.707112 0.000000
vn -0.707102 0.707112 0.000000
vn -0.707102 0.707112 0.000000
vn -0.707102 0.707112 0.000000
vn -0.707102 0.707112 0.000000
vn -0.707106 -0.707107 0.000000
vn -0.707106 -0.707107 0.000000
vn -0.707106 -0.707107 0.000000
vn -0.707106 -0.707107 0.000000
vn 0.707109 0.707105 0.000000
vn 0.707109 0.707105 0.000000
vn 0.707109 0.707105 0.000000
vn 0.707109 0.707105 0.000000
vn 0.000000 0.000000 1.000000
vn 0.000000 0.000000 1.000000
vn 0.000000 0.000000 1.000000
vn 0.000000 0.000000 1.000000
vn -0.707102 -0.707112 0.000000
vn -0.707102 -0.707112 0.000000
vn -0.707102 -0.707112 0.000000
vn -0.707102 -0.707112 0.000000
vn 0.707107 -0.707106 0.000000
vn 0.707107 -0.707106 0.000000
vn 0.707107 -0.707106 0.000000
vn 0.707107 -0.707106 0.000000
vn -0.707106 0.707107 0.000000
vn -0.707106 0.707107 0.000000
vn -0.707106 0.707107 0.000000
vn -0.707106 0.707107 0.000000
vn 0.000000 0.000000 1.000000
vn 0.000000 0.000000 1.000000
vn 0.000000 0.000000 1.000000
vn 0.000000 0.000000 1.000000
vn -0.707102 0.707112 0.000000
vn -0.707102 0.707112 0.000000
vn -0.707102 0.707112 0.000000
vn -0.707102 0.707112 0.000000
vn 0.707102 -0.707112 0.000000
vn 0.707102 -0.707112 0.000000
vn 0.707102 -0.707112 0.000000
vn 0.707102 -0.707112 0.000000
vn 0.707106 0.707107 0.000000
vn 0.707106 0.707107 0.000000
vn 0.707106 0.707107 0.000000
vn 0.707106 0.707107 0.000000
vn -0.707109 -0.707105 0.000000
vn -0.707109 -0.707105 0.000000
vn -0.707109 -0.707105 0.000000
vn -0.707109 -0.707105 0.000000
vn 0.000000 0.000000 1.000000
vn 0.000000 0.000000 1.000000
vn 0.000000 0.000000 1.000000
vn 0.000000 0.000000 1.000000
vn 0.707102 0.707112 0.000000
vn 0.707102 0.707112 0.000000
vn 0.707102 0.707112 0.000000
vn 0.707102 0.707112 0.000000
vn -0.707107 0.707106 0.000000
vn -0.707107 0.707106 0.000000
vn -0.707107 0.707106 0.000000
vn -0.707107 0.707106 0.000000
vn 0.707106 -0.707107 0.000000
vn 0.707106 -0.707107 0.000000
vn 0.707106 -0.707107 0.000000
vn 0.707106 -0.707107 0.000000
vn -0.000000 0.000000 1.000000
vn -0.000000 0.000000 1.000000
vn -0.000000 0.000000 1.000000
vn -0.000000 0.000000 1.000000
vn 0.707101 -0.707112 0.000000
vn 0.707101 -0.707112 0.000000
vn 0.707101 -0.707112 0.000000
vn 0.707101 -0.707112 0.000000
vn -0.707112 0.707102 0.000000
vn -0.707112 0.707102 0.000000
vn -0.707112 0.707102 0.000000
vn -0.707112 0.707102 0.000000
vn -0.707106 -0.707107 0.000000
vn -0.707106 -0.707107 0.000000
vn -0.707106 -0.707107 0.000000
vn -0.707106 -0.707107 0.000000
vn 0.707107 0.707106 0.000000
vn 0.707107 0.707106 0.000000
vn 0.707107 0.707106 0.000000
vn 0.707107 0.707106 0.000000
vn 0.000000 0.000000 1.000000
vn 0.000000 0.000000 1.000000
vn 0.000000 0.000000 1.000000
vn 0.000000 0.000000 1.000000
vn -0.707112 -0.707101 0.000000
vn -0.707112 -0.707101 0.000000
vn -0.707112 -0.707101 0.000000
vn -0.707112 -0.707101 0.000000
vn 0.707106 -0.707107 0.000000
vn 0.707106 -0.707107 0.000000
vn 0.707106 -0.707107 0.000000
vn 0.707106 -0.707107 0.000000
vn -0.707108 0.707106 0.000000
vn -0.707108 0.707106 0.000000
vn -0.707108 0.707106 0.000000
vn -0.707108 0.707106 0.000000
vn 0.000000 0.000000 1.000000
vn 0.000000 0.000000 1.000000
vn 0.000000 0.000000 1.000000
vn 0.000000 0.000000 1.000000
vn -0.707101 0.707112 0.000000
vn -0.707101 0.707112 0.000000
vn -0.707101 0.707112 0.000000
vn -0.707101 0.707112 0.000000
vn 0.707112 -0.707101 0.000000
vn 0.707112 -0.707101 0.000000
vn 0.707112 -0.707101 0.000000
vn 0.707112 -0.707101 0.000000
vn 0.707106 0.707107 0.000000
vn 0.707106 0.707107 0.000000
vn 0.707106 0.707107 0.000000
vn 0.707106 0.707107 0.000000
vn -0.707107 -0.707106 0.000000
vn -0.707107 -0.707106 0.000000
vn -0.707107 -0.707106 0.000000
vn -0.707107 -0.707106 0.000000
vn 0.000000 0.000000 1.000000
vn 0.000000 0.000000 1.000000
vn 0.000000 0.000000 1.000000
vn 0.000000 0.000000 1.000000
vn 0.707112 0.707101 0.000000
vn 0.707112 0.707101 0.000000
vn 0.707112 0.707101 0.000000
vn 0.707112 0.707101 0.000000
vn -0.707106 0.707107 0.000000
vn -0.707106 0.707107 0.000000
vn -0.707106 0.707107 0.000000
vn -0.707106 0.707107 0.000000
vn 0.707106 -0.707107 0.000000
vn 0.707106 -0.707107 0.000000
vn 0.707106 -0.707107 0.000000
vn 0.707106 -0.707107 0.000000
s off
g pCube13
f 1/1/1 2/2/2 4/3/3 3/4/4
f 3/4/5 4/3/6 6/5/7 5/6/8
f 7/7/9 8/8/10 2/9/11 1/10/12
f 2/2/13 8/11/14 6/12/15 4/3/16
f 7/13/17 1/1/18 3/4/19 5/14/20
f 9/15/21 10/16/22 12/17/23 11/18/24
f 15/19/25 16/20/26 10/21/27 9/22/28
f 10/16/29 16/23/30 14/24/31 12/17/32
f 15/25/33 9/15/34 11/18/35 13/26/36
f 17/27/37 18/28/38 20/29/39 19/30/40
f 19/30/41 20/29/42 22/31/43 21/32/44
f 23/33/45 24/34/46 18/35/47 17/36/48
f 18/28/49 24/37/50 22/38/51 20/29/52
f 23/39/53 17/27/54 19/30/55 21/40/56
f 25/41/57 26/42/58 28/43/59 27/44/60
f 31/45/61 32/46/62 26/47/63 25/48/64
f 26/42/65 32/49/66 30/50/67 28/43/68
f 31/51/69 25/41/70 27/44/71 29/52/72
f 33/53/73 34/54/74 36/55/75 35/56/76
f 35/56/77 36/55/78 38/57/79 37/58/80
f 39/59/81 40/60/82 34/61/83 33/62/84
f 34/54/85 40/63/86 38/64/87 36/55/88
f 39/65/89 33/53/90 35/56/91 37/66/92
f 41/67/93 42/68/94 44/69/95 43/70/96
f 47/71/97 48/72/98 42/73/99 41/74/100
f 42/68/101 48/75/102 46/76/103 44/69/104
f 47/77/105 41/67/106 43/70/107 45/78/108
f 49/79/109 50/80/110 52/81/111 51/82/112
f 51/82/113 52/81/114 54/83/115 53/84/116
f 55/85/117 56/86/118 50/87/119 49/88/120
f 50/80/121 56/89/122 54/90/123 52/81/124
f 55/91/125 49/79/126 51/82/127 53/92/128
f 57/93/129 58/94/130 60/95/131 59/96/132
f 63/97/133 64/98/134 58/99/135 57/100/136
f 58/94/137 64/101/138 62/102/139 60/95/140
f 63/103/141 57/93/142 59/96/143 61/104/144
